PathFileType	4	(X/Y/Z)	C:/Users/beibeiliu/ov580/test_trc/User1\sequence.20_training_dense_right.trc
DataRate	CameraRate	NumFrames	NumMarkers	Units	OrigDataRate	OrigDataStartFrame	OrigNumFrames
120	120	22	19	mm	120	165	263
Frame#	Time	ThumbCMC			ThumbMCP			ThumbIP			ThumbTip			IndexMCP			IndexPIP			IndexTip			MiddleMCP			MiddlePIP			MiddleTip			RingMCP			RingPIP			RingTip			PinkyMCP			PinkyPIP			PinkyTip			BackHand1			BackHand2			BackHand3	
		X0	Y0	Z0	X1	Y1	Z1	X2	Y2	Z2	X3	Y3	Z3	X4	Y4	Z4	X5	Y5	Z5	X6	Y6	Z6	X7	Y7	Z7	X8	Y8	Z8	X9	Y9	Z9	X10	Y10	Z10	X11	Y11	Z11	X12	Y12	Z12	X13	Y13	Z13	X14	Y14	Z14	X15	Y15	Z15	X16	Y16	Z16	X17	Y17	Z17	X18	Y18	Z18	
164	1.36667	163.663	5.04374	61.2798	168.221	27.8767	33.1351	165.605	35.9561	3.84439	154.27	45.4061	-13.6448	149.335	-39.3434	-10.8381	141.809	-44.4059	-42.6905	128.522	-35.6057	-64.5206	130.344	-52.8296	-16.5933	120.522	-53.2354	-47.7856	105.136	-33.1977	-74.3225	108.232	-53.5611	-8.09357	100.169	-54.7803	-38.2455	90.9815	-40.2495	-63.5656	87.4248	-43.5645	9.97178	81.6718	-46.2997	-12.2247	85.2359	-46.4257	-42.3292	114.715	-47.4793	48.3027	116.254	-43.395	83.7018	149.531	-32.0888	59.9768	
165	1.375	162.616	8.00578	61.3368	166.67	32.295	31.3182	164.704	41.7615	0.602764	149.443	48.7711	-18.1675	151.206	-35.0754	-12.0276	139.986	-43.0174	-43.4243	128.151	-33.4328	-65.8126	124.819	-50.6935	-12.9104	115.462	-51.1054	-49.3989	101.733	-30.9423	-73.7246	104.695	-51.816	-7.46808	102.382	-52.6837	-37.473	88.1765	-37.8542	-63.1329	89.1257	-39.7641	4.71896	84.8671	-42.4318	-13.1928	82.3813	-45.3552	-41.908	115.839	-42.5069	49.9244	114.209	-39.854	79.4941	148.222	-29.4443	57.4411	
166	1.38333	161.636	9.50015	55.0856	164.236	32.4909	28.0508	163.302	43.7427	4.16449	150.047	50.058	-17.3961	146.821	-37.3126	-11.264	137.57	-44.383	-42.1424	127.328	-34.9449	-66.6551	128.378	-52.7083	-16.0263	119.887	-53.2479	-49.2026	105.965	-29.9412	-75.4901	106.261	-52.3171	-6.14965	97.3309	-55.1864	-38.989	89.4207	-39.9339	-62.3289	88.6867	-38.8987	9.40469	81.815	-43.8379	-14.4788	86.1096	-42.81	-40.0772	114.868	-40.1787	45.3085	113.579	-36.6145	77.6217	148.108	-29.2022	57.2534	
167	1.39167	162.566	12.3444	56.958	163.859	32.2448	28.7542	162.531	40.4536	-3.24162	148.946	48.0773	-20.4329	152.687	-40.7872	-11.3021	142.908	-49.6466	-37.3898	126.304	-39.963	-66.6258	131.162	-56.1704	-12.405	121.111	-60.2095	-43.8015	105.299	-38.083	-72.8985	106.984	-56.0689	-4.04333	101.836	-60.7763	-38.9117	90.3491	-46.0367	-60.9115	86.0096	-43.8786	8.73739	85.3347	-47.3882	-13.9771	84.7712	-47.385	-41.138	112.773	-41.2964	46.5517	111.817	-36.5578	81.1799	145.782	-30.3529	58.5703	
168	1.4	161.157	13.3583	58.9439	160.532	28.6176	26.8914	160.211	34.9346	0.8822	149.961	40.261	-22.7948	153.243	-43.7312	-5.31007	141.307	-56.4766	-35.658	130.34	-49.5659	-61.2594	132.17	-60.9636	-5.96955	124.541	-68.7754	-38.7793	109.105	-49.1273	-66.4911	106.36	-62.4924	-0.387786	101.006	-69.0999	-36.2031	94.9117	-53.1296	-60.8348	85.0281	-51.1205	7.53339	87.109	-53.5146	-14.9888	86.7186	-56.6041	-39.9654	111.945	-44.1098	51.7893	112.77	-36.5421	80.6093	143.126	-28.7558	63.3811	
169	1.40833	158.625	10.3613	58.9188	162.804	26.4735	26.2865	162.418	30.194	0.0587914	153.296	36.0122	-29.0986	150.242	-54.596	-2.9909	145.74	-64.9734	-27.4976	135.46	-60.4426	-55.0949	133.81	-68.1961	-0.582924	127.246	-77.6273	-36.8092	113.387	-58.781	-64.405	110.135	-67.699	4.22024	105.506	-77.7072	-30.2506	98.2943	-63.3857	-56.7733	86.8953	-57.0975	10.7036	86.2764	-62.639	-7.96786	91.744	-63.9286	-39.4	111.086	-48.413	53.7674	112.039	-32.0578	86.4448	142.647	-28.6698	65.8869	
170	1.41667	156.39	5.80544	56.4815	162.73	22.9679	25.4635	164.621	23.0389	-5.02179	152.869	23.942	-25.9892	153.556	-58.2485	5.7089	147.032	-73.6915	-19.5384	135.538	-69.5518	-53.6644	132.446	-76.008	5.65033	129.975	-86.3606	-30.6519	115.419	-68.5149	-59.0075	114.241	-74.1198	9.47087	109.375	-86.77	-19.0732	99.8317	-76.0296	-50.1401	90.2381	-62.3554	16.8479	90.6878	-71.145	-7.67124	91.5774	-75.4846	-35.3271	110.578	-49.8336	56.0988	110.593	-35.2774	88.1565	140.641	-30.6894	69.7474	
171	1.425	157.453	5.15858	57.3293	158.838	15.5652	27.6295	161.266	13.1214	-2.87371	153.948	14.0641	-27.2261	155.531	-65.2033	10.141	148.386	-82.0482	-15.3058	138.538	-79.3257	-45.8986	135.232	-83.7867	9.65612	128.722	-95.4616	-22.3255	117.654	-80.6685	-53.8439	111.996	-80.4543	17.2713	112.8	-94.6262	-15.7675	101.734	-86.2083	-45.1675	91.921	-70.3531	20.9705	92.0554	-79.3435	2.68841	96.5349	-85.9774	-28.2765	112.538	-51.1651	61.6783	107.954	-37.8795	89.4117	144.654	-32.2443	73.3231	
172	1.43333	153.684	1.7187	58.417	157.408	11.3874	26.2682	163.265	10.0496	-3.86027	154.944	5.26711	-29.2658	157.343	-67.7365	15.7652	152.558	-87.7395	-11.1067	140.443	-89.0296	-41.5735	138.421	-86.4779	15.615	134.427	-101.443	-17.296	119.301	-89.9493	-46.1595	114.739	-86.1991	20.8891	111.492	-101.912	-4.93104	107.162	-94.4333	-36.515	88.023	-72.2186	29.5181	91.0361	-87.1828	6.38934	99.282	-91.146	-21.015	111.319	-54.1405	63.9636	108.329	-37.9154	91.7855	139.96	-35.618	76.3568	
173	1.44167	151.077	-0.0089146	61.1909	153.967	6.89249	27.4919	161.89	4.8012	-1.88288	156.085	1.09247	-29.5216	157.093	-73.5034	17.3855	149.657	-92.5514	-4.00535	136.598	-96.0472	-33.8312	134.464	-90.5827	20.8644	133.288	-106.845	-9.86213	119.487	-95.7322	-43.3962	113.678	-87.8115	26.7864	113.583	-105.408	-1.27123	104.678	-100.232	-32.9202	88.4032	-74.6956	33.5988	94.1856	-88.8714	13.8353	100.794	-98.1832	-13.9456	110.26	-53.1543	67.9998	106.763	-39.1721	97.5375	143.953	-35.6983	76.8777	
174	1.45	151.254	0.822291	62.6673	153.504	3.66033	25.6989	157.861	2.77934	1.99925	155.896	-0.109842	-27.7751	155.568	-74.9116	19.4596	150.533	-93.8855	-2.42866	136.789	-99.8756	-32.8714	132.751	-90.6135	24.3764	130.692	-108.152	-3.87418	121.842	-101.403	-40.7935	112.858	-89.6281	30.076	110.861	-109.557	-1.33104	101.63	-105.377	-29.3874	90.3148	-76.658	34.9906	92.8422	-91.2387	15.9327	99.9606	-98.537	-12.6907	110.977	-57.272	70.8642	104.028	-39.7935	99.0449	140.671	-36.0577	79.3855	
175	1.45833	150.604	-0.476749	62.2232	152.939	4.07013	26.5763	159.447	1.99217	0.437707	152.405	-2.08829	-22.6366	153.797	-72.7421	20.3796	149.308	-94.0633	-2.46215	139.52	-98.7898	-33.8927	135.766	-89.8356	23.3686	131.905	-109.77	-9.07185	117.014	-102.996	-37.5219	112.884	-91.6522	28.544	112.262	-108.917	0.193977	104.408	-105.397	-25.4551	90.7026	-80.1352	33.4866	95.0034	-91.352	13.9337	97.7723	-102.091	-9.56398	108.016	-57.7293	73.1321	106.841	-38.5581	98.7458	140.771	-39.9011	79.5358	
176	1.46667	149.468	0.193411	62.9207	152.125	5.57198	27.7845	158.275	4.05611	-0.828848	149.198	-1.83501	-23.857	152.615	-72.943	17.5514	151.634	-91.2984	-6.15221	141.055	-95.3483	-33.1017	135.309	-91.5693	19.8029	132.535	-107.131	-10.3206	117.24	-100.148	-41.4276	117.904	-90.9614	25.3348	115.921	-106.47	1.31074	103.931	-104.644	-30.922	92.5342	-78.4643	33.1791	91.2748	-92.1848	14.9681	96.2396	-100.93	-9.6614	110.409	-59.7379	67.1414	107.875	-41.4258	99.5672	140.996	-37.6147	76.8119	
177	1.475	149.084	4.46092	61.6146	149.041	12.6735	26.108	150.264	5.64042	-2.28707	144.848	7.9826	-29.1291	158.398	-68.1066	12.0928	149.053	-87.7896	-12.1913	139.047	-90.045	-37.9995	136.782	-85.9282	18.0178	135.995	-102.519	-16.694	118.414	-94.6464	-48.924	115.126	-89.8729	23.9049	114.824	-106.194	-3.54173	106.508	-102.926	-33.4447	91.5381	-78.4527	31.8678	97.1634	-89.551	12.8432	101.728	-96.8829	-15.8135	114.129	-57.3893	69.6865	109.523	-43.978	98.8405	144.477	-35.896	76.8718	
178	1.48333	145.111	5.20786	60.0162	143.17	14.8791	21.0815	144.324	16.8132	-5.98478	133.906	13.2086	-31.5195	157.999	-60.108	8.94645	151.715	-81.5851	-15.246	138.443	-83.5499	-45.1176	140.173	-81.7554	11.2876	137.977	-97.6037	-19.1035	117.995	-88.4769	-53.7178	121.583	-87.7829	15.779	115.984	-103.128	-9.25186	106.646	-100.062	-37.2858	97.5851	-76.6723	29.0911	100.149	-89.0611	8.23903	102.204	-97.6938	-16.6846	116.699	-57.5141	63.5543	112.734	-47.3837	94.1975	142.412	-35.5347	71.0742	
179	1.49167	142.26	8.35008	54.1403	132.471	19.2064	21.9912	128.819	20.7993	-3.09428	117.934	17.4838	-28.9035	156.446	-58.3137	1.81058	155.209	-72.0219	-24.2773	136.385	-75.7094	-46.4749	144.104	-76.4519	6.37444	138.879	-92.4546	-23.7744	119.674	-85.7919	-54.873	122.939	-85.8828	11.9942	123.693	-96.6253	-18.912	110.029	-94.285	-46.2781	103.411	-79.0666	21.8741	105.253	-88.0071	3.75701	106.546	-94.6408	-24.6338	118.791	-58.7889	61.4078	115.458	-47.4571	92.5965	145.546	-31.9351	68.0457	
180	1.5	133.17	11.9488	55.0068	118.982	25.1128	24.3572	113.551	23.4578	-5.19694	100.165	23.0556	-29.9293	156.374	-44.1055	0.560049	154.224	-63.4584	-28.6531	140.525	-65.7835	-54.7756	149.821	-69.177	-0.513813	147.428	-81.1201	-31.4706	123.778	-78.8262	-59.5098	133.484	-76.5664	7.41686	129.825	-92.1388	-25.2739	117.73	-89.876	-47.858	109.814	-77.7396	23.9607	113.864	-87.7849	-0.300852	113.298	-90.4897	-27.4529	126.393	-60.8068	56.6331	123.388	-48.1473	92.9612	147.293	-26.7818	66.5506	
181	1.50833	124.14	15.1479	53.8932	105.321	23.6701	23.7832	96.9965	24.0098	-0.28651	84.5807	17.4604	-24.253	158.117	-31.4544	-4.47504	157.112	-49.1996	-33.3652	141.562	-55.0059	-55.9542	154.744	-58.9856	-0.924046	153.876	-71.1528	-34.8184	130.913	-68.7811	-64.0079	140.102	-74.1791	6.87539	139.321	-84.8089	-26.5289	126.999	-80.5853	-51.6973	121.082	-80.1397	20.0094	124.513	-83.562	-4.06323	126.372	-84.0401	-28.0506	135.168	-51.744	57.6756	132.388	-45.5468	88.4068	145.017	-20.1126	64.7216	
182	1.51667	112.7	17.9455	57.4905	90.71	18.9852	31.5128	81.8187	19.7839	-0.89775	69.5465	10.0981	-22.3221	156.508	-20.1769	-8.22334	156.984	-36.5386	-33.8197	141.685	-46.7468	-55.4272	159.017	-44.2323	-2.72309	159.722	-58.5534	-34.2178	134.365	-59.9161	-65.3547	149.604	-61.0727	5.22013	149.977	-73.86	-29.0896	131.3	-77.7127	-52.4236	134.586	-75.6952	18.2509	135.447	-76.9548	-5.59413	135.339	-75.9187	-29.5681	144.009	-48.4174	54.2458	137.037	-44.4141	90.4674	146.128	-11.13	64.4922	
183	1.525	101.898	12.3102	62.0781	78.2858	12.0995	33.827	67.5733	13.6306	8.09685	56.6436	2.57454	-16.1299	146.928	-9.40361	-3.12523	151.984	-19.3298	-34.0357	141.275	-32.3201	-57.4012	159.361	-33.6388	-3.6434	160.629	-43.8153	-38.8436	134.493	-55.0718	-62.3866	157.312	-51.8909	-0.0313304	154.914	-60.0534	-32.1017	137.541	-66.5783	-52.5852	143.165	-70.5605	20.1027	144.94	-71.4538	-6.32309	138.195	-66.7392	-34.6638	148.419	-40.5962	55.5358	142.629	-37.5709	91.06	139.672	-3.59163	63.6986	
184	1.53333	91.9316	10.4206	62.664	71.1605	4.24659	36.4564	58.1872	4.00177	11.3238	50.4823	-7.10236	-9.94732	138.88	1.70196	-6.7123	145.563	-9.948	-36.273	136.577	-26.1066	-57.2569	157.915	-20.4433	-7.04939	159.183	-30.5584	-37.0529	134.053	-46.9607	-64.0689	157.553	-38.6148	1.28163	157.717	-44.5463	-32.6364	140.844	-59.7892	-53.3982	149.566	-58.1276	18.1863	153.519	-63.5231	-8.47576	145.314	-62.8313	-33.9161	148.052	-31.2251	55.2674	145.291	-27.7637	87.2094	132.166	-0.240002	65.3821	
185	1.54167	86.254	3.64938	67.7036	61.6379	-1.2724	43.232	53.6946	-5.42636	16.7936	44.0177	-15.5506	-7.28912	132.601	6.44211	-7.28335	139.739	-0.566133	-33.6693	130.228	-22.1848	-60.4432	152.749	-7.82094	-10.6331	153.9	-21.2676	-42.1042	134.027	-39.1899	-61.9831	159.591	-29.7096	-3.78941	161.126	-37.0601	-30.5754	142.671	-49.5846	-54.2616	153.648	-49.6223	16.7939	155.378	-52.0391	-11.8695	148.048	-55.0088	-34.8616	149.14	-24.742	51.9966	145.059	-26.5283	90.3002	126.461	3.02303	67.8456	
